<svg xmlns="http://www.w3.org/2000/svg" xmlns:xlink="http://www.w3.org/1999/xlink" viewBox="0 0 394.04 254.77"><defs><style>.cls-1,.cls-4{fill:#101022;}.cls-2{fill:url(#Degradado_sin_nombre_27);}.cls-3{fill:#1e1d35;}.cls-4{font-size:39.33px;font-family:Helvetica;}.cls-5{letter-spacing:-0.07em;}.cls-6{letter-spacing:-0.04em;}</style><linearGradient id="Degradado_sin_nombre_27" x1="3.39" y1="183.77" x2="183.85" y2="3.31" gradientUnits="userSpaceOnUse"><stop offset="0" stop-color="#d40825"/><stop offset="1" stop-color="#f4950e"/></linearGradient></defs><g id="Capa_2" data-name="Capa 2"><g id="Capa_1-2" data-name="Capa 1"><polygon class="cls-1" points="233.23 157.2 212.07 109.27 202.29 109.27 202.29 182.15 212.48 182.15 212.48 130.09 229.6 171.74 236.87 171.74 255.37 130.09 255.37 182.15 265.56 182.15 265.56 109.27 255.78 109.27 233.23 157.2"/><polygon class="cls-1" points="328.03 109.27 315.18 109.27 284.57 146.97 284.57 109.27 274.13 109.27 274.13 182.15 284.57 182.15 284.57 160.89 296.71 146.13 318.12 182.15 330.92 182.15 304.13 137.12 328.03 109.27"/><polygon class="cls-1" points="384.19 109.27 332.14 109.27 332.14 119.68 352.95 119.68 352.95 182.15 363.39 182.15 363.39 119.68 384.19 119.68 384.19 109.27"/><path class="cls-1" d="M202.33,91,237.4,45.5a41.83,41.83,0,0,0,5.35-8.74,19.26,19.26,0,0,0,1.9-7.59V29q0-7.37-4.3-11.41t-12.12-4q-7.3,0-11.83,4.32t-5.54,12.26v.07h-9.68v-.07a34.2,34.2,0,0,1,4.71-13.56A23.87,23.87,0,0,1,215.09,8a27.64,27.64,0,0,1,13-3,32.81,32.81,0,0,1,14.24,2.83,20,20,0,0,1,9,8.23,25.82,25.82,0,0,1,3.08,13v.06a24.5,24.5,0,0,1-2.53,9.91,57.14,57.14,0,0,1-7.09,11.44L213.93,89.91h42.25v8.51H202.33Z"/><path class="cls-1" d="M273.73,91.52Q267,84.59,267,72.2v-42q0-12.45,6.79-19.34T293.58,4q13.08,0,19.84,6.86t6.77,19.38v42q0,12.47-6.8,19.35t-19.81,6.9Q280.5,98.45,273.73,91.52Zm33-6.2Q311,80.72,311,72.2v-42q0-8.58-4.23-13.15t-13.14-4.57q-8.91,0-13.15,4.57T276.2,30.2v42q0,8.52,4.23,13.12t13.15,4.61Q302.49,89.93,306.72,85.32Z"/><path class="cls-1" d="M337.74,91.52Q331,84.59,331,72.2v-42q0-12.45,6.79-19.34T357.59,4q13.08,0,19.84,6.86t6.76,19.38v42q0,12.47-6.79,19.35t-19.81,6.9Q344.51,98.45,337.74,91.52Zm33-6.2Q375,80.72,375,72.2v-42q0-8.58-4.23-13.15t-13.14-4.57q-8.93,0-13.15,4.57T340.21,30.2v42q0,8.52,4.23,13.12t13.15,4.61Q366.5,89.93,370.73,85.32Z"/><rect class="cls-2" width="187.24" height="187.07" rx="11.4"/><path class="cls-3" d="M9.88,23.82V164.65l.15-.12.18-.12c.21-.16.43-.31.66-.46l.22-.14.65-.4.26-.14.63-.35.31-.15.61-.3.35-.15.59-.25.39-.14c.19-.07.38-.15.58-.21l.43-.14.55-.17.47-.11.54-.14.52-.1c.17,0,.33-.07.5-.09s.39-.06.59-.08l.45-.07.69,0,.37,0c.36,0,.71,0,1.07,0s.72,0,1.08,0l.27,0,.79.06.27,0,.78.11.26.05.77.15.21.05.8.2.17.05.82.26.14.05.84.31.09,0c.29.11.57.24.86.37l.05,0,.88.43,0,0c.3.15.59.32.88.49h0a21,21,0,0,1,4.82,3.92c0-.13.06-.26.1-.39l.09-.36c0-.13.08-.26.11-.39s.07-.23.11-.34.09-.26.13-.38l.12-.33.15-.38a3.05,3.05,0,0,1,.13-.32c.1-.25.22-.5.33-.75l.12-.24.19-.38.15-.27.21-.37a2.26,2.26,0,0,1,.16-.26c.07-.13.15-.25.22-.37l.16-.24c.08-.13.16-.25.25-.37l.12-.17c.33-.45.67-.88,1-1.29l.14-.16c.1-.12.22-.24.33-.36l.14-.14.36-.36.12-.11a15.42,15.42,0,0,1,1.89-1.53l.06,0,.49-.32.07,0,.52-.31h0a14.71,14.71,0,0,1,3-1.28h0a14.73,14.73,0,0,1,3.89-.65c-.11-.36-.21-.72-.29-1.09h0c-.08-.35-.15-.72-.21-1.08v0q-.07-.52-.12-1.05a1.41,1.41,0,0,1,0-.2c0-.36,0-.71,0-1.07,0-8,6-14.53,13.39-14.53.29,0,.58,0,.86,0l.24,0c.23,0,.46,0,.69.08l.17,0c.28,0,.56.1.83.16l.13,0,.72.2.16.05a13.16,13.16,0,0,1,1.61.64l.1.05q.38.18.75.39h0c.27.16.53.32.78.49a3.43,3.43,0,0,1,2.83-2.07V76.09H61.21c-1.61,0-2.61-1.51-1.81-2.73L91.78,20.57a2.26,2.26,0,0,1,3.61,0l32.49,52.79c.8,1.22-.21,2.73-1.81,2.73H113.28v62.18a4.58,4.58,0,0,1,1.52,4.48h.27a7.89,7.89,0,0,1,.84,0h.1a6.66,6.66,0,0,1,.76.12l.14,0c.24.06.47.12.7.2l.18.06a5.18,5.18,0,0,1,.65.26l.18.08c.19.09.37.19.55.29l.23.14.45.29.25.19.43.34.25.22.4.4.24.26c.13.14.25.28.37.43h0q.24-.29.51-.57l.06-.07.47-.47a1.14,1.14,0,0,0,.11-.11l.45-.41.14-.12L124,144l.17-.13.43-.32.2-.14.43-.28a1.64,1.64,0,0,1,.22-.14l.42-.25.24-.13.42-.22.26-.13.42-.19.27-.12.43-.16.29-.11.43-.14.29-.09.44-.12.3-.07.45-.09.3-.06.47-.07.3,0,.52-.05.25,0,.79,0,.75,0,.26,0,.49,0,.31,0,.43.06.33.07.39.07.35.09.36.09.36.11.33.1.38.13.31.12.38.16.28.12.39.19.26.12.4.22.23.13.4.25.22.13.4.27.19.13.41.32.16.12.41.34.15.12.41.38.12.11.41.42.1.1c.13.15.27.29.4.45l.08.09.4.48.06.09c.14.16.26.34.39.51l.05.07c.13.18.25.37.37.55l0,.06c.13.19.24.39.36.58l0,.05c.12.2.23.41.34.62l0,0c.11.21.21.43.32.65v0c.1.22.2.45.29.68h0l.27.7h0a17.34,17.34,0,0,1,1,5.38h0c.28,0,.55,0,.83,0h.2l.81.1h0c.27,0,.53.1.79.16l.19.05c.26.06.52.14.77.22h0c.26.09.5.19.75.29l.18.08a7.79,7.79,0,0,1,.72.34h0q.34.18.69.39l.16.1c.23.15.45.29.66.45h0c.21.15.42.32.62.49l.15.12a13.74,13.74,0,0,1,1.15,1.14l.12.14a11.53,11.53,0,0,1,1,1.31l.11.15a12.94,12.94,0,0,1,.81,1.46,1.3,1.3,0,0,1,.08.17c.12.26.23.52.34.78a16.82,16.82,0,0,1,2.9-2l0,0,.54-.27.15-.08.5-.23.21-.09.49-.2.23-.08a13.57,13.57,0,0,1,1.53-.48l.41-.1.35-.08.44-.08.34-.06.47-.06.33,0,.53,0,.27,0c.27,0,.55,0,.82,0s.54,0,.81,0h.26l.55,0,.29,0,.52.07.28,0,.57.11.21,0,.75.19.2.06.55.17.28.09.45.17.3.12.44.19.28.12.52.26a2,2,0,0,1,.29.15l.53.29,0,0V25c0-8.34-6.28-15.15-14-15.15H23.8C16.47,9.82,10.43,16,9.88,23.82Z"/><text class="cls-4" transform="translate(0 235.85)">MARKETING DIGI<tspan class="cls-5" x="325.58" y="0">T</tspan><tspan x="346.7" y="0">A</tspan><tspan class="cls-6" x="372.94" y="0">L</tspan></text></g></g></svg>