<svg width="40" height="40" viewBox="0 0 40 40" fill="none" xmlns="http://www.w3.org/2000/svg">
<path fill-rule="evenodd" clip-rule="evenodd" d="M12.8198 32.9483V15.4743H6.92502V32.9483H12.8198ZM9.87243 13.0901C11.9273 13.0901 13.2073 11.7474 13.2073 10.0707C13.1684 8.35667 11.9273 7.05127 9.91128 7.05127C7.89419 7.05127 6.57642 8.35667 6.57642 10.0707C6.57642 11.7474 7.85534 13.0901 9.83463 13.0901H9.87243Z" fill="#203240"/>
<path fill-rule="evenodd" clip-rule="evenodd" d="M16.0823 32.9481H21.9781V23.1897C21.9781 22.6673 22.017 22.146 22.1724 21.7726C22.5987 20.7288 23.5689 19.6479 25.1975 19.6479C27.3311 19.6479 28.1838 21.2512 28.1838 23.5993V32.9471H34.0786V22.928C34.0786 17.5605 31.17 15.0635 27.2912 15.0635C24.1107 15.0635 22.7142 16.8147 21.9393 18.0074H21.9781V15.4731H16.0823C16.16 17.1136 16.0823 32.9481 16.0823 32.9481Z" fill="#203240"/>
</svg>
