<svg width="40" height="40" viewBox="0 0 40 40" fill="none" xmlns="http://www.w3.org/2000/svg">
<path d="M33.3333 15.6667H24V13H33.3333V15.6667ZM35.6 29C35.0667 30.7333 32.9333 33 28.8 33C24.6667 33 21.3333 30.7333 21.3333 25.4C21.3333 20.2 24.4 17.5333 28.6667 17.5333C32.8 17.5333 35.3333 19.9333 35.8667 23.4C36 24.0667 36 25 36 26.3333H25.3333C25.4667 30.6 30 30.7333 31.4667 29H35.6ZM25.3333 23.6667H32C31.8667 21.6667 30.5333 20.7333 28.6667 20.7333C26.8 20.7333 25.7333 21.6667 25.3333 23.6667ZM12.6667 33H4V13H13.3333C20.6667 13.1333 20.8 20.2 16.9333 22.2C21.4667 23.9333 21.7333 33 12.6667 33ZM8 21H12.8C16.1333 21 16.6667 17 12.4 17H8V21ZM12.5333 25H8V29H12.4C16.5333 29 16.2667 25 12.5333 25Z" fill="#203240"/>
</svg>
