<svg width="96" height="96" viewBox="0 0 96 96" fill="none" xmlns="http://www.w3.org/2000/svg">
<rect width="96" height="96" rx="11" fill="#FCC700"/>
<path d="M30.836 22.5734L19.1997 83.4101L29.3276 81.3337L31.267 71.1597L41.0717 69.1872L42.4724 78.6345L52.6003 76.5582L46.2434 33.9933L40.964 20.4971L30.836 22.5734Z" fill="#4F748E"/>
<path d="M40.964 20.4967L29.3276 81.3334L39.4556 79.2571L41.395 69.083L51.1996 67.1105L52.6003 76.5578L62.7282 74.4815L56.3714 31.9166L51.0919 18.4204L40.964 20.4967Z" fill="#3A5B6E"/>
<path d="M51.0919 18.4216L39.4556 79.362L49.5835 77.2857L51.5229 67.1116L61.3276 65.1391L62.7282 74.5865L72.8562 72.5101L66.4993 29.9452L61.2198 16.3452L51.0919 18.4216Z" fill="#203240"/>
<path d="M61.2198 16.3442L49.5835 77.2847L60.0347 75.1045L61.4353 65.0343L71.3478 62.958L72.7484 72.4053L83.1996 70.2251L71.671 14.1641L61.2198 16.3442ZM62.9437 54.9641L66.4993 29.8404L70.0548 53.5106L62.9437 54.9641Z" fill="#FCC700"/>
</svg>
